<svg width="18" height="16" viewBox="0 0 18 16" fill="none" xmlns="http://www.w3.org/2000/svg">
<g clip-path="url(#clip0_650_16920)">
<path d="M16.3125 15.3572H1.6875C0.75375 15.3572 0 14.5915 0 13.6429V3.35717C0 2.4086 0.75375 1.64288 1.6875 1.64288H16.3125C17.2463 1.64288 18 2.4086 18 3.35717V13.6429C18 14.5915 17.2463 15.3572 16.3125 15.3572ZM1.6875 2.78574C1.3725 2.78574 1.125 3.03717 1.125 3.35717V13.6429C1.125 13.9629 1.3725 14.2143 1.6875 14.2143H16.3125C16.6275 14.2143 16.875 13.9629 16.875 13.6429V3.35717C16.875 3.03717 16.6275 2.78574 16.3125 2.78574H1.6875Z" fill="#3E2F28" fill-opacity="0.8"/>
<path d="M8.99985 10.0557C8.21235 10.0557 7.49235 9.76138 6.95235 9.22536L1.0461 3.36066C0.832353 3.15046 0.843603 2.81413 1.0686 2.61444C1.2936 2.41474 1.6536 2.42525 1.86735 2.63546L7.7736 8.50015C8.41485 9.14127 9.58485 9.14127 10.2261 8.50015L16.1324 2.64597C16.3461 2.43576 16.7061 2.42525 16.9311 2.62495C17.1561 2.82464 17.1674 3.16097 16.9536 3.37117L11.0474 9.23587C10.5074 9.77189 9.78735 10.0662 8.99985 10.0662V10.0557Z" fill="#3E2F28" fill-opacity="0.8"/>
</g>
<defs>
<clipPath id="clip0_650_16920">
<rect width="18" height="14.7143" fill="white" transform="translate(0 0.642883)"/>
</clipPath>
</defs>
</svg>
